<?xml version="1.0" encoding="UTF-8"?>
<svg xmlns="http://www.w3.org/2000/svg" xmlns:xlink="http://www.w3.org/1999/xlink" id="Layer_1" data-name="Layer 1" viewBox="0 0 367 502.81">
  <defs>
    <style>
      .cls-1 {
        fill: url(#linear-gradient);
      }

      .cls-2 {
        fill: #fc584e;
      }

      .cls-3 {
        fill: #ffa090;
      }

      .cls-4 {
        fill: #fff;
      }

      .cls-5 {
        fill: #ff7e6e;
      }

      .cls-6 {
        fill: #b41d1b;
      }
    </style>
    <linearGradient id="linear-gradient" x1="183.5" y1=".92" x2="183.5" y2="503.72" gradientTransform="translate(0 503.72) scale(1 -1)" gradientUnits="userSpaceOnUse">
      <stop offset="0" stop-color="#b41d1b"></stop>
      <stop offset=".12" stop-color="#bd2522"></stop>
      <stop offset=".31" stop-color="#d73a34"></stop>
      <stop offset=".54" stop-color="#fc584e"></stop>
      <stop offset=".78" stop-color="#ff7e6e"></stop>
      <stop offset="1" stop-color="#ffa090"></stop>
    </linearGradient>
  </defs>
  <polygon class="cls-4" points="362.19 5.02 4.8 5.02 4.8 425.06 4.8 425.51 183.5 497.42 362.19 425.51 362.19 425.06 362.19 5.02"></polygon>
  <path class="cls-1" d="M183.5,502.81L0,428.96V0H367V428.96l-183.5,73.84ZM9.61,422.06l173.89,69.98,173.89-69.98V10.05H9.61V422.06Z"></path>
  <polygon class="cls-2" points="28.82 387.71 28.82 410.4 28.82 410.77 183.5 470.28 338.18 410.77 338.18 410.4 338.18 387.71 183.5 447.22 28.82 387.71"></polygon>
  <polygon class="cls-5" points="28.82 355.53 28.82 378.22 28.82 378.58 183.5 438.09 338.18 378.58 338.18 378.22 338.18 355.53 183.5 415.03 28.82 355.53"></polygon>
  <polygon class="cls-3" points="28.82 323.34 28.82 346.03 28.82 346.4 183.5 405.91 338.18 346.4 338.18 346.03 338.18 323.34 183.5 382.85 28.82 323.34"></polygon>
  <path class="cls-6" d="M79.07,127.08v3.39h-2.07c-1.44,.09-2.86-.35-3.99-1.26-.96-.85-1.38-2.25-1.38-4.2v-6.73h-2.16v-3.32h2.15v-3.84h3.95v3.84h3.47v3.32h-3.47v6.73c-.06,.56,.1,1.12,.44,1.57,.43,.35,.97,.51,1.52,.45l1.54,.05Z"></path>
  <path class="cls-6" d="M96.34,123.46h-11.37c-.04,1.13,.36,2.22,1.11,3.06,.7,.65,1.62,.99,2.57,.96,.82,.03,1.62-.2,2.29-.67,.6-.44,1.01-1.09,1.16-1.82h4.17c-.41,2.19-1.87,4.03-3.91,4.92-1.1,.5-2.3,.75-3.51,.73-1.4,.03-2.79-.3-4.04-.96-1.16-.63-2.11-1.59-2.74-2.75-1.31-2.67-1.31-5.8,0-8.47,.62-1.17,1.57-2.13,2.74-2.76,1.24-.65,2.63-.98,4.04-.96,1.4-.03,2.78,.3,4.02,.96,1.12,.61,2.04,1.52,2.66,2.62,.65,1.16,.98,2.46,.96,3.79-.02,.46-.07,.91-.16,1.35Zm-4.8-4.61c-.73-.64-1.67-.99-2.64-.96-.99-.04-1.95,.31-2.69,.96-.78,.76-1.21,1.8-1.2,2.88h7.52c.13-1.07-.25-2.13-1.02-2.88h.03Z"></path>
  <path class="cls-6" d="M111.24,116.38c1.35,1.11,2.25,2.69,2.51,4.42h-4.17c-.14-.76-.55-1.44-1.15-1.92-.65-.49-1.45-.74-2.27-.71-1-.02-1.96,.41-2.61,1.16-1.4,2.05-1.4,4.75,0,6.8,.66,.75,1.61,1.18,2.61,1.16,.82,.03,1.62-.22,2.27-.72,.6-.48,1.01-1.16,1.15-1.92h4.17c-.26,1.73-1.16,3.31-2.51,4.42-1.42,1.11-3.19,1.69-5,1.62-1.4,.03-2.79-.3-4.04-.96-1.16-.63-2.11-1.59-2.74-2.75-1.31-2.67-1.31-5.8,0-8.47,.62-1.17,1.57-2.13,2.74-2.76,1.24-.65,2.63-.98,4.04-.96,1.8-.07,3.57,.49,5,1.59Z"></path>
  <path class="cls-6" d="M130.06,116.5c1.14,1.39,1.71,3.16,1.59,4.95v9.02h-3.88v-8.57c.06-1.05-.28-2.08-.96-2.88-.68-.7-1.63-1.07-2.6-1.03-1.01-.04-2,.36-2.69,1.1-.71,.88-1.05,2-.96,3.13v8.23h-3.95v-20.69h3.95v8.31c.39-1.02,1.1-1.88,2.03-2.45,.98-.6,2.12-.91,3.27-.88,1.59-.05,3.13,.59,4.21,1.77Z"></path>
  <path class="cls-6" d="M141.37,115.58c.96-.57,2.07-.87,3.19-.86v4.23h-1.14c-2.89,0-4.34,1.35-4.34,4.04v7.47h-3.94v-15.51h3.94v2.96c.55-.96,1.34-1.76,2.3-2.33Z"></path>
  <path class="cls-6" d="M161.19,123.46h-11.32c-.04,1.13,.36,2.22,1.12,3.06,.7,.65,1.62,1,2.57,.96,.81,.03,1.61-.2,2.28-.67,.6-.44,1.02-1.09,1.16-1.82h4.17c-.2,1.05-.65,2.04-1.32,2.88-.69,.87-1.57,1.56-2.58,2.01-2.42,1.05-5.19,.96-7.54-.24-1.17-.63-2.12-1.58-2.75-2.75-1.31-2.67-1.31-5.8,0-8.47,.62-1.17,1.58-2.13,2.75-2.76,1.24-.65,2.62-.98,4.03-.96,1.4-.03,2.78,.3,4.02,.96,1.12,.6,2.04,1.51,2.66,2.62,.65,1.16,.98,2.46,.96,3.79-.02,.47-.1,.94-.21,1.39Zm-4.8-4.61c-.72-.65-1.67-.99-2.64-.96-.99-.04-1.95,.31-2.69,.96-.77,.76-1.2,1.8-1.2,2.88h7.53c.12-1.07-.26-2.13-1.03-2.88h.03Z"></path>
  <path class="cls-6" d="M170.87,126.52l3.92-11.53h4.2l-5.76,15.51h-4.8l-5.76-15.51h4.23l3.99,11.53Z"></path>
  <path class="cls-6" d="M181.39,108.96c1.04-.81,2.5-.81,3.54,0,.85,.8,.89,2.14,.09,2.99-.03,.03-.06,.06-.09,.09-1.04,.81-2.5,.81-3.54,0-.85-.8-.89-2.14-.09-2.99,.03-.03,.06-.06,.09-.09Zm3.73,6v15.51h-3.95v-15.51h3.95Z"></path>
  <path class="cls-6" d="M203.15,123.46h-11.37c-.04,1.13,.36,2.22,1.12,3.06,.7,.65,1.62,.99,2.57,.96,.81,.03,1.61-.2,2.28-.67,.6-.44,1.02-1.09,1.16-1.82h4.18c-.21,1.05-.66,2.04-1.33,2.88-.68,.87-1.57,1.56-2.58,2.01-2.42,1.05-5.19,.96-7.54-.24-1.16-.63-2.12-1.58-2.75-2.75-1.31-2.67-1.31-5.8,0-8.47,.62-1.17,1.58-2.13,2.75-2.76,1.24-.65,2.62-.98,4.03-.96,1.4-.03,2.78,.3,4.02,.96,1.12,.6,2.04,1.51,2.66,2.62,.65,1.16,.98,2.46,.96,3.79,0,.47-.06,.94-.16,1.39Zm-4.8-4.61c-.73-.64-1.68-.99-2.65-.96-.98-.03-1.94,.31-2.68,.96-.78,.76-1.21,1.8-1.21,2.88h7.53c.12-1.06-.25-2.13-1.01-2.88h.02Z"></path>
  <path class="cls-6" d="M228.28,114.96l-4.17,15.51h-4.36l-3.33-11.28-3.41,11.28h-4.37l-4.14-15.51h3.99l2.52,11.98,3.44-11.98h4.18l3.47,11.98,2.55-11.98h3.65Z"></path>
  <path class="cls-6" d="M244.69,123.46h-11.37c-.04,1.12,.36,2.22,1.11,3.06,.7,.65,1.62,.99,2.57,.96,.82,.03,1.62-.2,2.29-.67,.6-.44,1.01-1.09,1.16-1.82h4.17c-.41,2.19-1.87,4.03-3.91,4.92-1.1,.5-2.3,.75-3.51,.73-1.4,.03-2.79-.3-4.04-.96-1.16-.63-2.11-1.59-2.74-2.75-1.31-2.67-1.31-5.8,0-8.47,.62-1.17,1.57-2.13,2.74-2.76,1.24-.65,2.63-.98,4.04-.96,1.4-.03,2.78,.3,4.02,.96,1.12,.61,2.04,1.52,2.66,2.62,.65,1.16,.98,2.46,.96,3.79-.02,.46-.07,.91-.16,1.35Zm-4.8-4.61c-.72-.65-1.67-.99-2.64-.96-.99-.04-1.95,.31-2.69,.96-.77,.76-1.21,1.8-1.2,2.88h7.52c.13-1.07-.25-2.13-1.02-2.88h.03Z"></path>
  <path class="cls-6" d="M253.86,115.58c.96-.57,2.07-.87,3.19-.86v4.23h-1.14c-2.89,0-4.34,1.35-4.34,4.04v7.47h-3.94v-15.51h3.94v2.96c.55-.96,1.34-1.77,2.3-2.33Z"></path>
  <path class="cls-6" d="M262.51,126.35v4.12h-4.25v-4.12h4.25Z"></path>
  <path class="cls-6" d="M277.11,116.38c1.35,1.11,2.25,2.69,2.51,4.42h-4.17c-.14-.76-.55-1.44-1.15-1.92-.65-.49-1.45-.74-2.27-.71-1-.02-1.96,.41-2.61,1.16-1.41,2.05-1.41,4.75,0,6.8,.66,.75,1.61,1.18,2.61,1.16,.82,.03,1.62-.22,2.27-.72,.6-.48,1.01-1.16,1.15-1.92h4.17c-.26,1.73-1.16,3.31-2.51,4.42-1.42,1.11-3.19,1.69-5,1.62-1.4,.03-2.79-.3-4.04-.96-1.16-.63-2.11-1.59-2.74-2.75-1.31-2.67-1.31-5.8,0-8.47,.62-1.17,1.57-2.13,2.74-2.76,1.24-.65,2.63-.98,4.04-.96,1.8-.07,3.57,.49,5,1.59Z"></path>
  <path class="cls-6" d="M293.66,115.71c1.19,.62,2.18,1.58,2.83,2.76,1.38,2.65,1.38,5.82,0,8.47-.66,1.17-1.65,2.12-2.83,2.75-2.56,1.29-5.59,1.29-8.15,0-1.2-.62-2.2-1.58-2.88-2.75-1.38-2.65-1.38-5.82,0-8.47,.67-1.18,1.67-2.14,2.88-2.76,2.57-1.27,5.58-1.27,8.15,0Zm-6.88,3.62c-1.51,1.99-1.51,4.74,0,6.73,1.54,1.55,4.05,1.55,5.6,0,0,0,0,0,0,0,1.52-1.98,1.52-4.74,0-6.73-1.55-1.54-4.05-1.54-5.6,0Z"></path>
  <path class="cls-6" d="M153.06,32.35h20.29c0,11.21-9.08,20.29-20.29,20.29h0v-20.29h0Z"></path>
  <path class="cls-5" d="M193.64,32.35h0v20.28h-20.29c0-11.2,9.09-20.28,20.29-20.28Z"></path>
  <rect class="cls-2" x="173.35" y="52.63" width="20.29" height="40.58"></rect>
  <rect class="cls-3" x="193.64" y="32.35" width="20.29" height="20.29"></rect>
  <g>
    <path d="M161.18,161.43v7.62h-10.75v31.98h-9.63v-31.98h-10.64v-7.62h31.02Z"></path>
    <path d="M194.19,163.42c3.04,1.74,5.44,4.14,7.2,7.22s2.63,6.56,2.63,10.44-.89,7.37-2.66,10.47c-1.77,3.1-4.18,5.52-7.22,7.25-3.04,1.74-6.41,2.6-10.11,2.6s-7.07-.87-10.11-2.6c-3.04-1.74-5.45-4.15-7.22-7.25-1.77-3.1-2.66-6.59-2.66-10.47s.89-7.36,2.66-10.44c1.77-3.08,4.18-5.49,7.22-7.22,3.04-1.74,6.41-2.6,10.11-2.6s7.12,.87,10.16,2.6Zm-17.64,9.35c-1.85,2.04-2.77,4.81-2.77,8.32s.92,6.24,2.77,8.29c1.85,2.05,4.34,3.08,7.48,3.08s5.58-1.03,7.45-3.08c1.87-2.05,2.8-4.82,2.8-8.29s-.92-6.23-2.77-8.29c-1.85-2.05-4.34-3.08-7.48-3.08s-5.63,1.02-7.48,3.05Z"></path>
    <path d="M218.97,187.13v13.89h-9.58v-39.59h15.51c4.7,0,8.29,1.17,10.75,3.5,2.46,2.33,3.7,5.48,3.7,9.44,0,2.46-.55,4.66-1.65,6.58-1.1,1.92-2.74,3.44-4.9,4.54-2.17,1.1-4.8,1.65-7.9,1.65h-5.94Zm10.64-12.77c0-3.47-1.92-5.21-5.77-5.21h-4.87v10.3h4.87c3.84,0,5.77-1.7,5.77-5.1Z"></path>
  </g>
  <g>
    <path d="M55.26,228.46l-5.75,24.05h-7.21l-3.84-16.09-3.88,16.09h-7.21l-5.75-24.05h6.33l3.1,17.42,4.22-17.42h6.36l4.22,17.42,3.13-17.42h6.29Z"></path>
    <path d="M76.18,244.07h-13.16c.07,1.43,.43,2.46,1.09,3.08,.66,.62,1.5,.94,2.52,.94,.86,0,1.58-.22,2.14-.65,.57-.43,.94-.99,1.12-1.67h6.16c-.25,1.34-.79,2.53-1.63,3.59s-1.9,1.88-3.2,2.48-2.73,.9-4.32,.9c-1.86,0-3.51-.39-4.95-1.17s-2.57-1.91-3.38-3.38c-.82-1.47-1.22-3.2-1.22-5.17s.4-3.72,1.21-5.19c.8-1.46,1.93-2.58,3.38-3.37,1.45-.78,3.11-1.17,4.97-1.17s3.54,.39,4.97,1.16c1.43,.77,2.53,1.85,3.32,3.25,.78,1.39,1.17,3,1.17,4.81,0,.48-.06,1-.17,1.57Zm-6.72-5.26c-.69-.62-1.55-.94-2.57-.94s-1.95,.32-2.65,.95c-.7,.64-1.1,1.57-1.19,2.79h7.42c.02-1.25-.31-2.18-1-2.81Z"></path>
    <path d="M95.42,234.46c1.24,.78,2.21,1.9,2.93,3.37s1.07,3.19,1.07,5.19-.36,3.7-1.07,5.17c-.71,1.47-1.69,2.6-2.93,3.38-1.24,.78-2.64,1.17-4.2,1.17-1.45,0-2.7-.33-3.74-.99-1.04-.66-1.8-1.55-2.28-2.69v3.44h-5.82v-25.17h5.82v9.63c.48-1.13,1.24-2.03,2.28-2.69,1.04-.66,2.29-.99,3.74-.99,1.56,0,2.96,.39,4.2,1.17Zm-9.08,5.17c-.78,.83-1.17,1.96-1.17,3.38s.39,2.53,1.17,3.37c.78,.84,1.79,1.26,3.01,1.26s2.25-.41,3.01-1.22,1.14-1.95,1.14-3.4-.38-2.58-1.14-3.4-1.76-1.22-3.01-1.22-2.23,.41-3.01,1.24Z"></path>
    <path d="M129.36,246.71c-1.01,1.83-2.46,3.25-4.35,4.27-1.89,1.02-4.12,1.53-6.68,1.53h-9.08v-24.05h9.08c2.58,0,4.82,.5,6.7,1.5,1.88,1,3.33,2.4,4.34,4.22,1.01,1.82,1.51,3.9,1.51,6.26s-.5,4.45-1.51,6.28Zm-6.26-1.21c1.26-1.2,1.89-2.89,1.89-5.07s-.63-3.87-1.89-5.07c-1.26-1.2-3.02-1.8-5.29-1.8h-2.76v13.74h2.76c2.27,0,4.03-.6,5.29-1.8Z"></path>
    <path d="M152.04,244.07h-13.16c.07,1.43,.43,2.46,1.09,3.08,.66,.62,1.5,.94,2.52,.94,.86,0,1.58-.22,2.14-.65,.57-.43,.94-.99,1.12-1.67h6.16c-.25,1.34-.79,2.53-1.63,3.59s-1.9,1.88-3.2,2.48-2.73,.9-4.32,.9c-1.86,0-3.51-.39-4.95-1.17s-2.57-1.91-3.38-3.38c-.82-1.47-1.22-3.2-1.22-5.17s.4-3.72,1.21-5.19c.8-1.46,1.93-2.58,3.38-3.37,1.45-.78,3.11-1.17,4.97-1.17s3.54,.39,4.97,1.16c1.43,.77,2.53,1.85,3.32,3.25,.78,1.39,1.17,3,1.17,4.81,0,.48-.06,1-.17,1.57Zm-6.72-5.26c-.69-.62-1.55-.94-2.57-.94s-1.95,.32-2.65,.95c-.7,.64-1.1,1.57-1.19,2.79h7.42c.02-1.25-.31-2.18-1-2.81Z"></path>
    <path d="M164.01,246.83l4.12-13.3h6.19l-6.74,18.98h-7.21l-6.73-18.98h6.19l4.18,13.3Z"></path>
    <path d="M194.59,244.07h-13.17c.07,1.43,.43,2.46,1.09,3.08,.66,.62,1.5,.94,2.52,.94,.86,0,1.58-.22,2.14-.65s.94-.99,1.12-1.67h6.16c-.25,1.34-.79,2.53-1.63,3.59s-1.9,1.88-3.2,2.48-2.73,.9-4.32,.9c-1.86,0-3.51-.39-4.95-1.17s-2.57-1.91-3.38-3.38c-.82-1.47-1.22-3.2-1.22-5.17s.4-3.72,1.21-5.19c.8-1.46,1.93-2.58,3.38-3.37,1.45-.78,3.11-1.17,4.97-1.17s3.54,.39,4.97,1.16c1.43,.77,2.53,1.85,3.32,3.25,.78,1.39,1.17,3,1.17,4.81,0,.48-.06,1-.17,1.57Zm-6.72-5.26c-.69-.62-1.55-.94-2.57-.94s-1.95,.32-2.65,.95c-.7,.64-1.1,1.57-1.19,2.79h7.42c.02-1.25-.31-2.18-1-2.81Z"></path>
    <path d="M203.6,227.34v25.17h-5.82v-25.17h5.82Z"></path>
    <path d="M221.55,234.46c1.48,.78,2.65,1.91,3.5,3.38,.85,1.47,1.28,3.2,1.28,5.17s-.43,3.7-1.28,5.17c-.85,1.47-2.02,2.6-3.5,3.38-1.49,.78-3.17,1.17-5.05,1.17s-3.57-.39-5.07-1.17c-1.5-.78-2.67-1.91-3.52-3.38-.85-1.47-1.28-3.2-1.28-5.17s.42-3.7,1.28-5.17c.85-1.47,2.02-2.6,3.52-3.38,1.5-.78,3.19-1.17,5.07-1.17s3.57,.39,5.05,1.17Zm-7.86,5.07c-.76,.8-1.14,1.97-1.14,3.49s.38,2.68,1.14,3.47c.76,.79,1.69,1.19,2.81,1.19s2.04-.4,2.79-1.19c.75-.79,1.12-1.95,1.12-3.47s-.37-2.68-1.12-3.49c-.75-.8-1.68-1.21-2.79-1.21s-2.05,.4-2.81,1.21Z"></path>
    <path d="M245.39,234.46c1.24,.78,2.21,1.9,2.93,3.37s1.07,3.19,1.07,5.19-.36,3.7-1.07,5.17c-.71,1.47-1.69,2.6-2.93,3.38-1.24,.78-2.64,1.17-4.2,1.17-1.45,0-2.7-.33-3.74-.99-1.04-.66-1.8-1.55-2.28-2.69v12.48h-5.82v-28.03h5.82v3.44c.48-1.13,1.24-2.03,2.28-2.69,1.04-.66,2.29-.99,3.74-.99,1.56,0,2.96,.39,4.2,1.17Zm-9.08,5.17c-.78,.83-1.17,1.96-1.17,3.38s.39,2.53,1.17,3.37c.78,.84,1.79,1.26,3.01,1.26s2.25-.41,3.01-1.22c.76-.82,1.14-1.95,1.14-3.4s-.38-2.58-1.14-3.4c-.76-.82-1.76-1.22-3.01-1.22s-2.23,.41-3.01,1.24Z"></path>
    <path d="M282.52,235.48c1.34,1.44,2.01,3.44,2.01,6v11.02h-5.78v-10.34c0-1.2-.32-2.14-.97-2.81-.65-.67-1.53-1-2.64-1s-2.07,.36-2.74,1.07c-.67,.71-1,1.72-1,3.01v10.07h-5.82v-10.34c0-1.2-.32-2.14-.95-2.81-.64-.67-1.51-1-2.62-1s-2.08,.35-2.76,1.05c-.68,.7-1.02,1.71-1.02,3.03v10.07h-5.82v-18.98h5.82v3.23c.5-1.07,1.26-1.91,2.3-2.52,1.03-.61,2.24-.92,3.62-.92s2.73,.33,3.84,1c1.11,.67,1.95,1.63,2.52,2.88,.66-1.18,1.56-2.12,2.7-2.82,1.14-.7,2.41-1.05,3.79-1.05,2.33,0,4.17,.72,5.51,2.16Z"></path>
    <path d="M306.26,244.07h-13.16c.07,1.43,.43,2.46,1.09,3.08,.66,.62,1.5,.94,2.52,.94,.86,0,1.58-.22,2.14-.65,.57-.43,.94-.99,1.12-1.67h6.16c-.25,1.34-.79,2.53-1.63,3.59-.84,1.05-1.91,1.88-3.2,2.48-1.29,.6-2.73,.9-4.32,.9-1.86,0-3.51-.39-4.95-1.17-1.44-.78-2.57-1.91-3.38-3.38-.82-1.47-1.22-3.2-1.22-5.17s.4-3.72,1.21-5.19c.8-1.46,1.93-2.58,3.38-3.37,1.45-.78,3.11-1.17,4.97-1.17s3.54,.39,4.97,1.16c1.43,.77,2.53,1.85,3.32,3.25,.78,1.39,1.17,3,1.17,4.81,0,.48-.06,1-.17,1.57Zm-6.72-5.26c-.69-.62-1.55-.94-2.57-.94s-1.95,.32-2.65,.95c-.7,.64-1.1,1.57-1.19,2.79h7.42c.02-1.25-.31-2.18-1-2.81Z"></path>
    <path d="M326.69,235.5c1.28,1.45,1.92,3.45,1.92,5.99v11.02h-5.82v-10.34c0-1.27-.33-2.26-1-2.98-.67-.71-1.56-1.07-2.67-1.07-1.18,0-2.11,.37-2.81,1.12-.69,.75-1.04,1.82-1.04,3.2v10.07h-5.82v-18.98h5.82v3.47c.54-1.13,1.36-2.03,2.43-2.69,1.08-.66,2.34-.99,3.79-.99,2.18,0,3.91,.73,5.19,2.18Z"></path>
    <path d="M343.2,247.51v5h-2.62c-2.22,0-3.95-.55-5.19-1.65-1.24-1.1-1.85-2.92-1.85-5.46v-6.97h-2.55v-4.9h2.55v-4.66h5.82v4.66h3.81v4.9h-3.81v7.08c0,.75,.15,1.27,.46,1.56,.31,.29,.82,.44,1.55,.44h1.84Z"></path>
    <path d="M101.93,272.64c2.01,1.61,3.3,3.79,3.89,6.53h-6.16c-.45-1.11-1.15-1.98-2.09-2.62-.94-.63-2.06-.95-3.35-.95-1.7,0-3.07,.62-4.12,1.87s-1.56,2.91-1.56,5,.52,3.75,1.56,4.98c1.04,1.24,2.42,1.85,4.12,1.85,1.29,0,2.41-.32,3.35-.95,.94-.63,1.64-1.5,2.09-2.58h6.16c-.59,2.72-1.89,4.89-3.89,6.51-2.01,1.62-4.54,2.43-7.6,2.43-2.34,0-4.39-.52-6.16-1.55-1.77-1.03-3.14-2.48-4.1-4.34-.96-1.86-1.45-3.98-1.45-6.36s.48-4.5,1.45-6.36c.96-1.86,2.33-3.3,4.1-4.34,1.77-1.03,3.82-1.55,6.16-1.55,3.06,0,5.6,.8,7.6,2.42Z"></path>
    <path d="M123.02,276.46c1.48,.78,2.65,1.91,3.5,3.38,.85,1.47,1.28,3.2,1.28,5.17s-.43,3.7-1.28,5.17c-.85,1.47-2.02,2.6-3.5,3.38-1.49,.78-3.17,1.17-5.05,1.17s-3.57-.39-5.07-1.17c-1.5-.78-2.67-1.91-3.52-3.38-.85-1.47-1.28-3.2-1.28-5.17s.43-3.7,1.28-5.17c.85-1.47,2.02-2.6,3.52-3.38,1.5-.78,3.19-1.17,5.07-1.17s3.57,.39,5.05,1.17Zm-7.86,5.07c-.76,.8-1.14,1.97-1.14,3.49s.38,2.68,1.14,3.47,1.7,1.19,2.81,1.19,2.04-.4,2.79-1.19,1.12-1.95,1.12-3.47-.37-2.68-1.12-3.49-1.68-1.21-2.79-1.21-2.05,.4-2.81,1.21Z"></path>
    <path d="M160.93,277.48c1.34,1.44,2.01,3.44,2.01,6v11.02h-5.78v-10.34c0-1.2-.32-2.14-.97-2.81-.65-.67-1.53-1-2.64-1s-2.07,.36-2.74,1.07c-.67,.71-1,1.72-1,3.01v10.07h-5.82v-10.34c0-1.2-.32-2.14-.95-2.81-.64-.67-1.51-1-2.62-1s-2.08,.35-2.76,1.05c-.68,.7-1.02,1.71-1.02,3.03v10.07h-5.82v-18.98h5.82v3.23c.5-1.07,1.26-1.91,2.3-2.52,1.03-.61,2.24-.92,3.62-.92,1.45,0,2.73,.33,3.84,1,1.11,.67,1.95,1.63,2.52,2.88,.66-1.18,1.56-2.12,2.7-2.82,1.15-.7,2.41-1.05,3.79-1.05,2.34,0,4.17,.72,5.51,2.16Z"></path>
    <path d="M182.85,276.46c1.24,.78,2.21,1.9,2.93,3.37,.71,1.46,1.07,3.19,1.07,5.19s-.36,3.7-1.07,5.17c-.71,1.47-1.69,2.6-2.93,3.38-1.24,.78-2.64,1.17-4.2,1.17-1.45,0-2.7-.33-3.74-.99-1.04-.66-1.8-1.55-2.28-2.69v12.48h-5.82v-28.03h5.82v3.44c.48-1.13,1.24-2.03,2.28-2.69,1.04-.66,2.29-.99,3.74-.99,1.56,0,2.96,.39,4.2,1.17Zm-9.08,5.17c-.78,.83-1.17,1.96-1.17,3.38s.39,2.53,1.17,3.37c.78,.84,1.79,1.26,3.01,1.26s2.25-.41,3.01-1.22,1.14-1.95,1.14-3.4-.38-2.58-1.14-3.4-1.76-1.22-3.01-1.22-2.23,.41-3.01,1.24Z"></path>
    <path d="M200.83,276.28c1.04,.66,1.81,1.55,2.31,2.69v-3.44h5.78v18.98h-5.78v-3.44c-.5,1.13-1.27,2.03-2.31,2.69-1.04,.66-2.29,.99-3.74,.99-1.57,0-2.97-.39-4.2-1.17-1.24-.78-2.21-1.91-2.93-3.38-.71-1.47-1.07-3.2-1.07-5.17s.36-3.72,1.07-5.19c.71-1.46,1.69-2.58,2.93-3.37,1.24-.78,2.64-1.17,4.2-1.17,1.45,0,2.7,.33,3.74,.99Zm-4.88,5.34c-.76,.82-1.14,1.95-1.14,3.4s.38,2.58,1.14,3.4c.76,.82,1.76,1.22,3.01,1.22s2.23-.42,3.01-1.26c.78-.84,1.17-1.96,1.17-3.37s-.39-2.56-1.17-3.38c-.78-.83-1.79-1.24-3.01-1.24s-2.25,.41-3.01,1.22Z"></path>
    <path d="M230.17,277.5c1.28,1.45,1.92,3.45,1.92,5.99v11.02h-5.82v-10.34c0-1.27-.33-2.26-1-2.98-.67-.71-1.56-1.07-2.67-1.07-1.18,0-2.11,.37-2.81,1.12-.69,.75-1.04,1.82-1.04,3.2v10.07h-5.82v-18.98h5.82v3.47c.54-1.13,1.36-2.03,2.43-2.69,1.08-.66,2.34-.99,3.79-.99,2.18,0,3.91,.73,5.19,2.18Z"></path>
    <path d="M236.34,267.99c.63-.58,1.47-.87,2.52-.87s1.88,.29,2.52,.87,.95,1.31,.95,2.19-.32,1.58-.95,2.16-1.47,.87-2.52,.87-1.88-.29-2.52-.87-.95-1.3-.95-2.16,.32-1.62,.95-2.19Zm5.41,7.54v18.98h-5.82v-18.98h5.82Z"></path>
    <path d="M263.62,286.07h-13.16c.07,1.43,.43,2.46,1.09,3.08,.66,.62,1.5,.94,2.52,.94,.86,0,1.58-.22,2.14-.65,.57-.43,.94-.99,1.12-1.67h6.16c-.25,1.34-.79,2.53-1.63,3.59-.84,1.05-1.91,1.88-3.2,2.48-1.29,.6-2.73,.9-4.32,.9-1.86,0-3.51-.39-4.95-1.17-1.44-.78-2.57-1.91-3.38-3.38-.82-1.47-1.22-3.2-1.22-5.17s.4-3.72,1.21-5.19c.8-1.46,1.93-2.58,3.38-3.37,1.45-.78,3.11-1.17,4.97-1.17s3.54,.39,4.97,1.16c1.43,.77,2.53,1.85,3.32,3.25,.78,1.39,1.17,3,1.17,4.81,0,.48-.06,1-.17,1.57Zm-6.72-5.26c-.69-.62-1.55-.94-2.57-.94s-1.95,.32-2.65,.95c-.7,.64-1.1,1.57-1.19,2.79h7.42c.02-1.25-.31-2.18-1-2.81Z"></path>
    <path d="M279.49,277.09c1.44,1.2,2.34,2.79,2.7,4.76h-5.44c-.16-.77-.52-1.38-1.07-1.82s-1.25-.66-2.09-.66c-.66,0-1.16,.14-1.5,.42-.34,.28-.51,.69-.51,1.21,0,.59,.31,1.03,.93,1.33,.62,.29,1.6,.59,2.94,.88,1.45,.34,2.64,.69,3.57,1.04,.93,.35,1.73,.92,2.42,1.72,.68,.79,1.02,1.86,1.02,3.2,0,1.09-.29,2.05-.88,2.89s-1.44,1.5-2.55,1.97c-1.11,.48-2.43,.71-3.95,.71-2.56,0-4.61-.57-6.16-1.7-1.54-1.13-2.48-2.75-2.82-4.86h5.61c.09,.82,.44,1.44,1.04,1.87s1.38,.65,2.33,.65c.66,0,1.16-.15,1.5-.46,.34-.31,.51-.71,.51-1.21,0-.66-.31-1.13-.93-1.41-.62-.28-1.64-.58-3.04-.9-1.41-.29-2.56-.61-3.47-.95s-1.69-.89-2.35-1.65c-.66-.76-.99-1.8-.99-3.11,0-1.7,.65-3.08,1.94-4.13,1.29-1.05,3.12-1.58,5.48-1.58s4.33,.6,5.77,1.8Z"></path>
  </g>
  <g>
    <path d="M158.1,336.59c0-1.53-.66-2.3-1.99-2.3-.75,0-1.29,.26-1.64,.78-.35,.52-.54,1.33-.57,2.44h-4.68c.11-2.41,.84-4.22,2.18-5.43,1.34-1.21,3.04-1.82,5.1-1.82s3.77,.54,4.86,1.62c1.09,1.08,1.64,2.49,1.64,4.23,0,1.92-.74,3.8-2.21,5.64-1.47,1.84-3.24,3.39-5.29,4.66h7.81v3.86h-14.11v-3.58c5.94-4.24,8.9-7.61,8.9-10.11Z"></path>
    <path d="M165.26,340.4c0-3.08,.63-5.52,1.88-7.32s3.25-2.7,5.99-2.7,4.72,.9,5.98,2.7c1.26,1.8,1.89,4.24,1.89,7.32s-.63,5.55-1.89,7.36c-1.26,1.81-3.25,2.72-5.98,2.72s-4.74-.91-5.99-2.72-1.88-4.26-1.88-7.36Zm10.98,0c0-1.77-.21-3.13-.63-4.07s-1.25-1.41-2.48-1.41-2.09,.48-2.52,1.43c-.43,.95-.64,2.31-.64,4.06s.21,3.14,.64,4.1c.43,.96,1.27,1.44,2.52,1.44s2.06-.48,2.48-1.44c.42-.96,.63-2.33,.63-4.1Z"></path>
    <path d="M191.98,336.59c0-1.53-.66-2.3-1.99-2.3-.75,0-1.29,.26-1.64,.78s-.54,1.33-.57,2.44h-4.68c.11-2.41,.84-4.22,2.18-5.43,1.34-1.21,3.04-1.82,5.1-1.82s3.77,.54,4.86,1.62c1.09,1.08,1.64,2.49,1.64,4.23,0,1.92-.74,3.8-2.21,5.64-1.47,1.84-3.24,3.39-5.29,4.66h7.81v3.86h-14.11v-3.58c5.94-4.24,8.91-7.61,8.91-10.11Z"></path>
    <path d="M199.2,346.87v-4l9.04-12.4h5.15v12.24h2.38v4.17h-2.38v3.64h-4.84v-3.64h-9.35Zm9.74-10.86l-4.87,6.69h4.87v-6.69Z"></path>
  </g>
</svg>
