<svg xmlns="http://www.w3.org/2000/svg" width="36" height="36" viewBox="0 0 36 36">
  <g id="pinterest-new" transform="translate(-1294 -11028)">
    <circle id="Ellipse_56" data-name="Ellipse 56" cx="18" cy="18" r="18" transform="translate(1294 11028)" fill="#fe7d4c" opacity="0"/>
    <path id="Icon_awesome-pinterest-p" data-name="Icon awesome-pinterest-p" d="M8.2.457C4.078.457,0,3.208,0,7.66c0,2.831,1.593,4.44,2.558,4.44.4,0,.627-1.11.627-1.424,0-.374-.953-1.17-.953-2.727A5.435,5.435,0,0,1,7.879,2.424c2.739,0,4.766,1.556,4.766,4.416,0,2.136-.857,6.141-3.632,6.141a1.786,1.786,0,0,1-1.858-1.762c0-1.52,1.062-2.992,1.062-4.561C8.217,4,4.44,4.479,4.44,7.7a4.725,4.725,0,0,0,.386,2.039c-.555,2.389-1.689,5.948-1.689,8.41,0,.76.109,1.508.181,2.268.137.153.068.137.278.06,2.027-2.775,1.955-3.318,2.872-6.95a3.262,3.262,0,0,0,2.787,1.448c4.271,0,6.19-4.163,6.19-7.915C15.444,3.063,11.993.457,8.2.457Z" transform="translate(1304 11035.543)" fill="#fff"/>
  </g>
</svg>
