<svg xmlns="http://www.w3.org/2000/svg" width="36" height="36" viewBox="0 0 36 36">
  <g id="skype-new" transform="translate(-1378 -11028)">
    <circle id="Ellipse_58" data-name="Ellipse 58" cx="18" cy="18" r="18" transform="translate(1378 11028)" fill="#fe7d4c" opacity="0"/>
    <path id="Icon_awesome-skype" data-name="Icon awesome-skype" d="M19.268,14.4a9.874,9.874,0,0,0,.213-1.987A9.31,9.31,0,0,0,10.167,3.1a9.59,9.59,0,0,0-1.987.213,5.075,5.075,0,0,0-7.123,7.114,9.874,9.874,0,0,0-.213,1.987,9.31,9.31,0,0,0,9.314,9.314,9.59,9.59,0,0,0,1.987-.213,5.075,5.075,0,0,0,8.176-4.024,5,5,0,0,0-1.053-3.09Zm-8.829,4.151c-2.976,0-5.467-1.325-5.467-2.949a1.275,1.275,0,0,1,1.338-1.388c1.416,0,1.547,2.037,4,2.037,1.166,0,1.919-.517,1.919-1.193,0-.848-.726-.98-1.906-1.27-2.836-.7-5.344-1-5.344-3.956,0-2.686,2.659-3.679,4.95-3.679,2.5,0,5.027.994,5.027,2.513a1.367,1.367,0,0,1-1.375,1.443c-1.284,0-1.325-1.52-3.4-1.52-1.166,0-1.906.318-1.906,1.021,0,.9.944.989,3.135,1.5,1.878.422,4.115,1.216,4.115,3.521,0,2.681-2.591,3.924-5.081,3.924Z" transform="translate(1386 11033.75)" fill="#fff"/>
  </g>
</svg>
