<svg xmlns="http://www.w3.org/2000/svg" width="36" height="36" viewBox="0 0 36 36">
  <g id="youtube-new" transform="translate(-1334 -11028)">
    <circle id="Ellipse_57" data-name="Ellipse 57" cx="18" cy="18" r="18" transform="translate(1334 11028)" fill="#fe7d4c" opacity="0"/>
    <path id="Icon_simple-youtube" data-name="Icon simple-youtube" d="M21.049,7.743a2.694,2.694,0,0,0-1.87-1.87c-1.675-.449-8.417-.449-8.417-.449s-6.725-.009-8.417.449a2.694,2.694,0,0,0-1.87,1.87,27.99,27.99,0,0,0-.468,5.2,27.99,27.99,0,0,0,.468,5.18,2.694,2.694,0,0,0,1.87,1.87c1.673.45,8.417.45,8.417.45s6.724,0,8.417-.45a2.694,2.694,0,0,0,1.87-1.87,27.99,27.99,0,0,0,.448-5.18,27.99,27.99,0,0,0-.448-5.2ZM8.61,16.16V9.716l5.611,3.227Z" transform="translate(1341.993 11033.576)" fill="#fff"/>
  </g>
</svg>
